<svg width="60" height="43" viewBox="0 0 60 43" fill="none" xmlns="http://www.w3.org/2000/svg">
    <g clip-path="url(#clip0_4727_993)">
        <path d="M60 0H0V43H60V0Z" fill="#FF0000"/>
        <path d="M25.7222 8.35953C25.3054 8.35248 24.6138 8.49283 24.6293 8.81371C23.4686 8.61411 23.3477 9.09516 23.4159 9.52321C23.5263 9.35334 23.6608 9.26111 23.7641 9.24372C23.9189 9.21794 24.0809 9.2681 24.2463 9.37002C24.4117 9.47196 24.5939 9.63645 24.6748 9.73821C24.2652 9.83648 23.9487 9.77304 23.6275 9.71669C23.4692 9.6889 23.2476 9.59954 23.1159 9.50707C22.9842 9.41458 22.9427 9.32754 22.7356 9.1147C22.4913 8.86375 22.2313 8.93441 22.3123 9.32432C22.4997 9.68646 22.8126 9.84794 23.207 9.91288C23.3968 9.94415 23.6794 10.012 23.9998 10.0123C24.3202 10.0127 24.68 9.96588 24.8757 10.0069C24.7581 10.081 24.6251 10.2087 24.3615 10.2596C24.0934 10.3113 23.6858 10.0996 23.4373 10.0419C23.4689 10.2516 23.7325 10.4476 24.2516 10.5498C25.1046 10.7362 25.8134 10.8778 26.282 11.133C26.7506 11.3882 27.046 11.7077 27.257 11.9581C27.6769 12.4563 27.699 12.8387 27.7257 12.9229C27.8121 13.7189 27.5355 14.1666 27.0213 14.3043C26.7642 14.3731 26.3075 14.2435 26.14 14.0463C25.9726 13.8491 25.8097 13.5101 25.8561 12.9793C25.9012 12.7711 26.1386 12.2287 25.9365 12.1166C25.0055 11.6004 23.8749 11.0782 23.057 10.7675C22.8334 10.6826 22.6493 10.9875 22.5775 11.1062C21.188 10.9364 19.9352 9.99295 19.3713 8.98841C18.9872 8.30423 18.3542 8.98982 18.4606 9.63609C18.6324 10.3574 19.1801 10.879 19.8374 11.2486C20.5119 11.6212 21.355 11.9879 22.2079 11.9688C22.6674 12.0561 22.6628 12.6525 22.1115 12.7643C21.0331 12.7712 20.1728 12.7442 19.3606 11.9581C18.7445 11.3937 18.3976 12.0662 18.5757 12.4472C18.8776 13.6218 20.5477 13.9508 22.2373 13.5706C22.8916 13.4619 22.4998 14.1653 22.315 14.1726C21.609 14.6805 20.3451 15.1774 19.232 14.1672C18.7226 13.7759 18.3782 14.1048 18.5677 14.6698C19.0616 16.1427 20.9509 15.8334 22.248 15.1078C22.5819 14.9211 22.8849 15.3556 22.4784 15.6857C20.8653 16.8166 20.0587 16.8294 19.3311 16.3952C18.4202 16.0347 18.34 17.0484 18.8811 17.3815C19.4825 17.7516 21.0128 17.4741 22.1356 16.766C22.6169 16.407 22.6387 16.9684 22.3338 17.1907C21.0014 18.3459 20.4763 18.6502 19.0873 18.4618C18.3986 18.408 18.409 19.2599 18.9507 19.5933C19.6904 20.0484 21.135 19.2929 22.2561 18.3597C22.728 18.1067 22.8055 18.5216 22.5722 19.0128C21.8871 19.8799 21.2442 20.3912 20.6248 20.628C20.0055 20.8647 19.4098 20.827 18.9882 20.6817C18.4739 20.5044 18.4094 21.0407 18.6936 21.5282C18.8649 21.8221 19.5747 21.9164 20.3409 21.6438C21.1071 21.3713 21.9297 20.732 22.4945 19.9829C22.9859 19.5513 22.9248 20.1312 22.7007 20.5392C21.5698 22.3331 20.5354 22.9985 19.1731 22.8854C18.569 22.7825 18.4318 23.2538 18.8168 23.689C19.4929 24.2515 20.3382 24.2339 21.0775 23.6782C21.7348 23.0424 22.9922 21.6733 23.6516 20.9397C24.1163 20.568 24.2648 20.9344 24.1284 21.6895C24.0044 22.1219 23.694 22.5773 22.8481 22.9096C22.2702 23.2405 22.7041 23.6966 23.1373 23.7051C23.3757 23.7098 23.8599 23.4301 24.2302 23.0117C24.7174 22.4613 24.7464 22.0917 25.015 21.2353C25.2688 20.8178 25.7221 21.0127 25.7222 21.4503C25.5048 22.3082 25.318 22.462 24.8784 22.8129C24.458 23.2089 25.1712 23.3409 25.4115 23.1784C26.1066 22.7082 26.3604 22.1001 26.5927 21.547C26.7604 21.1479 27.2467 21.3414 27.0213 21.9932C26.4825 23.5509 25.5971 24.1642 24.0481 24.4791C23.8911 24.5071 23.7953 24.6001 23.8498 24.7828C24.0578 24.9993 24.266 25.1958 24.474 25.4117C23.5161 25.6915 22.7379 25.8487 21.7793 26.1293C21.309 25.8199 20.9291 25.5574 20.4588 25.2478C20.3348 24.9569 20.2769 24.5129 19.5829 24.8258C19.1126 24.6079 18.8956 24.6878 18.6347 24.9064C19.0114 24.9205 19.1753 25.0218 19.323 25.194C19.5159 25.7037 19.9607 25.7529 20.4159 25.6079C20.7121 25.8582 20.8698 26.0502 21.1659 26.3013C20.6131 26.2823 20.228 26.2725 19.6766 26.2556C19.1503 25.6886 18.7302 25.7196 18.3534 26.1642C18.0663 26.2085 17.9445 26.2147 17.748 26.5647C18.0571 26.4374 18.2515 26.3993 18.3855 26.5378C18.9452 26.8633 19.3107 26.7906 19.5882 26.5378C20.1281 26.5709 20.6146 26.5989 21.1552 26.6346C20.9566 26.8039 20.6841 26.8937 20.4855 27.0646C19.6747 26.8318 19.2514 27.1451 19.1088 27.809C19.0001 28.0769 18.9492 28.3528 18.9963 28.6394C19.0747 28.3773 19.2009 28.1519 19.4329 28.0106C20.1556 28.1948 20.4274 27.8987 20.4668 27.465C20.8152 27.1798 21.3405 27.1169 21.6882 26.8281C22.0948 26.9586 22.2913 27.0395 22.7007 27.1694C22.8463 27.6132 23.1757 27.7889 23.7105 27.6746C24.3472 27.6947 24.2348 27.9568 24.2864 28.1664C24.4556 27.8653 24.4509 27.5725 24.0588 27.3064C23.9161 26.9175 23.5999 26.7406 23.1855 26.9651C22.7955 26.854 22.6929 26.6943 22.3043 26.5835C23.2873 26.2691 23.9846 26.1984 24.9668 25.8847C25.2127 26.1174 25.4075 26.2845 25.6552 26.4921C25.7857 26.5703 25.9107 26.59 25.9873 26.4921C26.6028 25.5983 26.8777 24.8106 27.4498 24.2212C27.6684 23.9773 27.9445 23.6483 28.2507 23.5681C28.4038 23.528 28.5916 23.5525 28.7114 23.6837C28.8313 23.8149 28.9255 24.0567 28.8856 24.4174C28.8282 24.9352 28.7035 25.0986 28.5588 25.4091C28.414 25.7195 28.2371 25.9104 28.0552 26.1481C27.6915 26.6235 27.2116 26.9002 26.9275 27.0861C26.3594 27.4577 26.1192 27.2951 25.6793 27.2715C25.1108 27.3355 24.9595 27.6133 25.4248 27.9971C25.8598 28.2242 26.2508 28.2522 26.5686 28.1933C26.8414 28.1427 27.1607 27.7893 27.3882 27.5994C27.6443 27.3025 28.0689 27.6545 27.7793 27.9998C27.2531 28.6271 26.7273 29.0408 26.0784 29.0318C25.3966 29.1239 25.5241 29.5082 25.9766 29.6956C26.791 30.0328 27.5263 29.4012 27.8998 28.9861C28.188 28.6698 28.3927 28.6574 28.3418 29.1474C28.0557 30.0343 27.6647 30.377 27.0266 30.4212C26.509 30.373 26.5034 30.7739 26.882 31.0447C27.7443 31.6436 28.3688 30.6238 28.6606 30.0074C28.8685 29.4513 29.1874 29.7157 29.2204 30.174C29.2247 30.7863 28.9489 31.2861 28.2106 31.9128C28.7755 32.8159 29.4342 33.7345 29.9998 34.6406L31.7146 15.4793L30.0003 12.4519C29.8217 12.2865 29.2179 11.5727 29.0601 11.4737C29.0026 11.412 28.9676 11.3684 29.0521 11.3366C29.1338 11.3059 29.3252 11.2714 29.4539 11.2479C29.0903 10.8825 28.7787 10.7653 28.0904 10.5653C28.2582 10.4937 28.4213 10.5354 28.9154 10.5116C28.7193 10.2322 28.2811 9.80427 27.7154 9.59782C28.089 9.33135 28.1618 9.31349 28.5324 9.0012C27.8907 8.95553 27.3427 8.83289 26.7913 8.66526C26.4428 8.50172 25.9586 8.36287 25.7226 8.35889L25.7222 8.35953ZM25.7838 9.10934C26.1229 9.10934 26.3329 9.22597 26.3329 9.36734C26.3329 9.51116 26.1229 9.62803 25.7838 9.62803C25.4461 9.62803 25.232 9.5005 25.232 9.3566C25.2321 9.21522 25.4461 9.10934 25.7838 9.10934Z"
              fill="black"/>
        <path d="M34.2778 8.35953C34.6946 8.35248 35.3862 8.49283 35.3707 8.81371C36.5314 8.61411 36.6523 9.09516 36.5841 9.52321C36.4737 9.35334 36.3392 9.26111 36.2359 9.24372C36.0811 9.21794 35.9191 9.2681 35.7537 9.37002C35.5883 9.47196 35.4061 9.63645 35.3252 9.73821C35.7348 9.83648 36.0513 9.77304 36.3725 9.71669C36.5308 9.6889 36.7524 9.59954 36.8841 9.50707C37.0158 9.41458 37.0573 9.32754 37.2644 9.1147C37.5087 8.86375 37.7687 8.93441 37.6877 9.32432C37.5003 9.68646 37.1874 9.84794 36.793 9.91288C36.6032 9.94415 36.3206 10.012 36.0002 10.0123C35.6798 10.0127 35.32 9.96588 35.1243 10.0069C35.2419 10.081 35.3749 10.2087 35.6385 10.2596C35.9066 10.3113 36.3142 10.0996 36.5627 10.0419C36.5311 10.2516 36.2675 10.4476 35.7484 10.5498C34.8954 10.7362 34.1866 10.8778 33.718 11.133C33.2494 11.3882 32.954 11.7077 32.743 11.9581C32.3231 12.4563 32.301 12.8387 32.2743 12.9229C32.1879 13.7189 32.4645 14.1666 32.9787 14.3043C33.2358 14.3731 33.6925 14.2435 33.86 14.0463C34.0274 13.8491 34.1903 13.5101 34.1439 12.9793C34.0988 12.7711 33.8614 12.2287 34.0635 12.1166C34.9945 11.6004 36.1251 11.0782 36.943 10.7675C37.1666 10.6826 37.3507 10.9875 37.4225 11.1062C38.812 10.9364 40.0648 9.99295 40.6287 8.98841C41.0128 8.30423 41.6458 8.98982 41.5394 9.63609C41.3676 10.3574 40.8199 10.879 40.1626 11.2486C39.4881 11.6212 38.645 11.9879 37.7921 11.9688C37.3326 12.0561 37.3372 12.6525 37.8885 12.7643C38.9669 12.7712 39.8272 12.7442 40.6394 11.9581C41.2555 11.3937 41.6024 12.0662 41.4243 12.4472C41.1224 13.6218 39.4523 13.9508 37.7627 13.5706C37.1084 13.4619 37.5002 14.1653 37.685 14.1726C38.391 14.6805 39.6549 15.1774 40.768 14.1672C41.2774 13.7759 41.6218 14.1048 41.4323 14.6698C40.9384 16.1427 39.0491 15.8334 37.752 15.1078C37.4181 14.9211 37.1151 15.3556 37.5216 15.6857C39.1347 16.8166 39.9413 16.8294 40.6689 16.3952C41.5798 16.0347 41.66 17.0484 41.1189 17.3815C40.5175 17.7516 38.9872 17.4741 37.8644 16.766C37.3831 16.407 37.3613 16.9684 37.6662 17.1907C38.9986 18.3459 39.5237 18.6502 40.9127 18.4618C41.6014 18.408 41.591 19.2599 41.0493 19.5933C40.3096 20.0484 38.865 19.2929 37.7439 18.3597C37.272 18.1067 37.1945 18.5216 37.4278 19.0128C38.1129 19.8799 38.7558 20.3912 39.3752 20.628C39.9945 20.8647 40.5902 20.827 41.0118 20.6817C41.5261 20.5044 41.5906 21.0407 41.3064 21.5282C41.1351 21.8221 40.4253 21.9164 39.6591 21.6438C38.8929 21.3713 38.0703 20.732 37.5055 19.9829C37.0141 19.5513 37.0752 20.1312 37.2993 20.5392C38.4302 22.3331 39.4646 22.9985 40.8269 22.8854C41.431 22.7825 41.5682 23.2538 41.1832 23.689C40.5071 24.2515 39.6618 24.2339 38.9225 23.6782C38.2652 23.0424 37.0078 21.6733 36.3484 20.9397C35.8837 20.568 35.7352 20.9344 35.8716 21.6895C35.9956 22.1219 36.306 22.5773 37.1519 22.9096C37.7298 23.2405 37.2959 23.6966 36.8627 23.7051C36.6243 23.7098 36.1401 23.4301 35.7698 23.0117C35.2826 22.4613 35.2536 22.0917 34.985 21.2353C34.7312 20.8178 34.2779 21.0127 34.2778 21.4503C34.4952 22.3082 34.682 22.462 35.1216 22.8129C35.542 23.2089 34.8288 23.3409 34.5885 23.1784C33.8934 22.7082 33.6396 22.1001 33.4073 21.547C33.2396 21.1479 32.7533 21.3414 32.9787 21.9932C33.5175 23.5509 34.4029 24.1642 35.9519 24.4791C36.1089 24.5071 36.2047 24.6001 36.1502 24.7828C35.9422 24.9993 35.734 25.1958 35.526 25.4117C36.4839 25.6915 37.2621 25.8487 38.2207 26.1293C38.691 25.8199 39.0709 25.5574 39.5412 25.2478C39.6652 24.9569 39.7231 24.5129 40.4171 24.8258C40.8874 24.6079 41.1044 24.6878 41.3653 24.9064C40.9886 24.9205 40.8247 25.0218 40.677 25.194C40.4841 25.7037 40.0393 25.7529 39.5841 25.6079C39.2879 25.8582 39.1302 26.0502 38.8341 26.3013C39.3869 26.2823 39.772 26.2725 40.3234 26.2556C40.8497 25.6886 41.2698 25.7196 41.6466 26.1642C41.9337 26.2085 42.0555 26.2147 42.252 26.5647C41.9429 26.4374 41.7485 26.3993 41.6145 26.5378C41.0548 26.8633 40.6893 26.7906 40.4118 26.5378C39.8719 26.5709 39.3854 26.5989 38.8448 26.6346C39.0434 26.8039 39.3159 26.8937 39.5145 27.0646C40.3253 26.8318 40.7486 27.1451 40.8912 27.809C40.9999 28.0769 41.0508 28.3528 41.0037 28.6394C40.9253 28.3773 40.7991 28.1519 40.5671 28.0106C39.8444 28.1948 39.5726 27.8987 39.5332 27.465C39.1848 27.1798 38.6595 27.1169 38.3118 26.8281C37.9052 26.9586 37.7087 27.0395 37.2993 27.1694C37.1537 27.6132 36.8243 27.7889 36.2895 27.6746C35.6528 27.6947 35.7652 27.9568 35.7136 28.1664C35.5444 27.8653 35.5491 27.5725 35.9412 27.3064C36.0839 26.9175 36.4001 26.7406 36.8145 26.9651C37.2045 26.854 37.3071 26.6943 37.6957 26.5835C36.7127 26.2691 36.0154 26.1984 35.0332 25.8847C34.7873 26.1174 34.5925 26.2845 34.3448 26.4921C34.2143 26.5703 34.0893 26.59 34.0127 26.4921C33.3972 25.5983 33.1223 24.8106 32.5502 24.2212C32.3316 23.9773 32.0555 23.6483 31.7493 23.5681C31.5962 23.528 31.4084 23.5525 31.2886 23.6837C31.1687 23.8149 31.0745 24.0567 31.1144 24.4174C31.1718 24.9352 31.2965 25.0986 31.4412 25.4091C31.586 25.7195 31.7629 25.9104 31.9448 26.1481C32.3085 26.6235 32.7884 26.9002 33.0725 27.0861C33.6406 27.4577 33.8808 27.2951 34.3207 27.2715C34.8892 27.3355 35.0405 27.6133 34.5752 27.9971C34.1402 28.2242 33.7492 28.2522 33.4314 28.1933C33.1586 28.1427 32.8393 27.7893 32.6118 27.5994C32.3557 27.3025 31.9311 27.6545 32.2207 27.9998C32.7469 28.6271 33.2727 29.0408 33.9216 29.0318C34.6034 29.1239 34.4759 29.5082 34.0234 29.6956C33.209 30.0328 32.4737 29.4012 32.1002 28.9861C31.812 28.6698 31.6073 28.6574 31.6582 29.1474C31.9443 30.0343 32.3353 30.377 32.9734 30.4212C33.491 30.373 33.4966 30.7739 33.118 31.0447C32.2557 31.6436 31.6312 30.6238 31.3394 30.0074C31.1315 29.4513 30.8126 29.7157 30.7796 30.174C30.7753 30.7863 31.0511 31.2861 31.7894 31.9128C31.2245 32.8159 30.5658 33.7345 30.0002 34.6406L28.2854 15.4793L29.9997 12.4519C30.1783 12.2865 30.7821 11.5727 30.9399 11.4737C30.9974 11.412 31.0324 11.3684 30.9479 11.3366C30.8662 11.3059 30.6748 11.2714 30.5461 11.2479C30.9097 10.8825 31.2213 10.7653 31.9096 10.5653C31.7418 10.4937 31.5787 10.5354 31.0846 10.5116C31.2807 10.2322 31.7189 9.80427 32.2846 9.59782C31.911 9.33135 31.8382 9.31349 31.4676 9.0012C32.1093 8.95553 32.6573 8.83289 33.2087 8.66526C33.5572 8.50172 34.0414 8.36287 34.2774 8.35889L34.2778 8.35953ZM34.2162 9.10934C33.8771 9.10934 33.6671 9.22597 33.6671 9.36734C33.6671 9.51116 33.8771 9.62803 34.2162 9.62803C34.5539 9.62803 34.768 9.5005 34.768 9.3566C34.7679 9.21522 34.5539 9.10934 34.2162 9.10934Z"
              fill="black"/>
        <path d="M0 5H60H0ZM60 12H0H60ZM0 19H60H0ZM60 26H0H60ZM0 33H60H0ZM60 40H0H60Z" fill="black"/>
    </g>
    <defs>
        <clipPath id="clip0_4727_993">
            <rect width="60" height="43" rx="4" fill="white"/>
        </clipPath>
    </defs>
</svg>