<svg width="56" height="55" viewBox="0 0 56 55" fill="none" xmlns="http://www.w3.org/2000/svg">
<g clip-path="url(#clip0_5298_2040)">
<path d="M19.8799 35.5283V55H43.6667C44.8964 55 46.081 54.8213 47.1999 54.4947L19.8799 35.5283Z" fill="#E4E1DA"/>
<path d="M0 21.7271V42.887C0 48.1631 3.40147 52.6285 8.17597 54.2974V27.4032L0 21.7271Z" fill="#FFCCD5"/>
<path d="M8.1765 0.702637C4.69656 1.91903 1.94765 4.62174 0.711914 8.04041L8.1765 13.2224V0.702637Z" fill="#E4E1DA"/>
<path d="M19.8799 0V21.3477L55.5548 46.1145C55.8423 45.0874 55.9998 44.0064 55.9998 42.8871V30.7502C49.2738 30.7418 44.2067 28.8962 40.6099 26.8808C38.8075 25.8709 37.372 24.819 36.276 23.9413C35.1801 23.0636 34.3851 22.3399 34.0352 22.0885C31.8117 20.4913 29.61 17.3482 27.8761 13.4389C26.1421 9.5296 24.9177 4.85707 24.9177 0.233744C24.9177 0.155168 24.9211 0.0780775 24.9219 0H19.8799Z" fill="#9DDF7B"/>
<path d="M1.02548 7.26074C0.367281 8.74527 0 10.3849 0 12.1128V22.7248L46.1412 54.7575C50.9996 53.793 54.8031 50.0411 55.7631 45.2615L1.02548 7.26074Z" fill="#FCAB1A"/>
<path d="M0.71136 8.04053C0.2518 9.31252 0 10.6826 0 12.1131V21.7274L47.2017 54.4962C51.2629 53.3123 54.4337 50.1395 55.5566 46.116L0.71136 8.04053Z" fill="#FFD634"/>
<path opacity="0.125" d="M12.3338 0C10.5238 0 8.80928 0.38259 7.26367 1.06476V53.9352C8.80928 54.6174 10.5238 55 12.3338 55H20.7938V0H12.3338Z" fill="black"/>
<path d="M12.3339 0C10.8734 0 9.47479 0.248443 8.17676 0.702108V54.2979C9.47479 54.7516 10.8734 55 12.3339 55H19.8807V0H12.3339Z" fill="white"/>
<path d="M24.9222 0C24.9214 0.0780775 24.918 0.155151 24.918 0.233744C24.918 4.85707 26.1424 9.5296 27.8763 13.4389C29.6103 17.3482 31.812 20.4913 34.0355 22.0885C34.3854 22.3399 35.1804 23.0636 36.2763 23.9413C37.3723 24.819 38.8078 25.8709 40.6102 26.8808C44.207 28.8962 49.2741 30.742 56.0001 30.7502V29.0628C49.5926 29.0545 44.8491 27.3141 41.4615 25.416C39.7638 24.4647 38.4083 23.4726 37.3609 22.6338C36.3135 21.795 35.6127 21.1296 35.0509 20.726C33.2824 19.4556 31.1017 16.4875 29.4505 12.7647C27.7992 9.04196 26.636 4.5625 26.636 0.233744C26.636 0.155085 26.6386 0.0780026 26.6403 0H24.9222Z" fill="#90C36C"/>
<path d="M25.7806 0C25.7798 0.077828 25.7764 0.154886 25.7764 0.233313C25.7764 9.18538 30.5506 18.5395 34.5425 21.407C36.3639 22.7154 42.8516 29.8898 55.9997 29.9062V12.1129C55.9997 5.40223 50.4992 0 43.6666 0H25.7806Z" fill="#F4EFEB"/>
<path d="M37.6143 0C37.7646 5.72498 39.2251 9.69135 42.813 12.9972C44.5326 14.5816 46.2022 15.9543 48.6519 16.8833C50.5379 17.5985 52.8542 18.0467 56.0005 18.2157V16.2766C53.0567 16.11 50.9797 15.6898 49.3611 15.076C47.2325 14.2688 45.8325 13.1249 44.1605 11.5844C40.9419 8.6188 39.715 5.3913 39.5834 0H37.6143Z" fill="#90C36C"/>
<path d="M38.5986 0C38.7399 5.55843 40.0838 9.15492 43.4868 12.2903C46.4802 15.0484 48.9753 16.8591 56.0005 17.2464V12.1129C56.0005 5.40223 50.5001 0 43.6675 0H38.5986Z" fill="#9DDF7B"/>
<path d="M12.3332 0C11.7567 0 11.1908 0.0415718 10.6357 0.116016V23.6474C11.7432 23.2425 12.9151 23.034 14.0968 23.0317C15.2297 23.0358 16.3537 23.2293 17.4205 23.604V0H12.3332Z" fill="#3394E3"/>
<path d="M42.1532 34.8743C41.9938 34.8793 41.8378 34.926 41.7034 35.0105C40.291 35.896 38.6645 36.366 37.0038 36.3683C35.7959 36.3674 34.5994 36.1182 33.4885 35.6374C33.0572 35.4509 32.5426 35.6373 32.3361 36.0533C31.6141 37.5089 31.2366 39.1067 31.2314 40.7258V40.7288C31.2323 46.6511 36.1379 51.4701 42.1681 51.4701C48.1988 51.4701 53.1064 46.6505 53.1064 40.7275C53.1064 40.7269 53.1064 40.7263 53.1064 40.7257C53.1039 39.1032 52.7264 37.5022 52.0035 36.0434C51.7967 35.6268 51.2791 35.4419 50.8476 35.6296C49.7383 36.113 48.5445 36.3643 47.3371 36.3683C45.6836 36.3616 44.064 35.8926 42.6576 35.0109C42.5827 34.9638 42.4909 34.9656 42.4061 34.9426C42.3307 34.8952 42.2426 34.8715 42.1532 34.8743Z" fill="#0078D9"/>
<path d="M42.1668 35.3091C42.0871 35.3116 42.0096 35.3352 41.9424 35.3774C40.4592 36.3073 38.7489 36.8005 37.003 36.8027C35.7336 36.8018 34.4773 36.5411 33.3105 36.0361C33.2057 35.9908 33.0871 35.9871 32.9796 36.0258C32.8721 36.0645 32.7841 36.1426 32.7339 36.2437C32.0411 37.6403 31.6787 39.1726 31.6738 40.7262C31.6738 40.7267 31.6738 40.7273 31.6738 40.7279C31.6738 46.4154 36.3777 51.0353 42.1686 51.0353C47.9595 51.0353 52.6633 46.4154 52.6633 40.7279V40.727C52.6608 39.1703 52.2987 37.6344 51.605 36.2346C51.5548 36.1334 51.4665 36.0553 51.3588 36.0166C51.2511 35.978 51.1323 35.9819 51.0275 36.0275C49.8614 36.5356 48.6051 36.7994 47.335 36.8031C45.5973 36.7965 43.8956 36.3034 42.4193 35.3779C42.3441 35.3306 42.2561 35.3068 42.1668 35.3095V35.3091Z" fill="white"/>
<path d="M42.1802 35.7441C40.6264 36.7183 38.8327 37.2357 37.002 37.2377C35.671 37.2368 34.3541 36.9634 33.1314 36.4342C32.7055 37.296 32.4096 38.2142 32.2529 39.1597H52.0773C51.9239 38.2113 51.6305 37.29 51.2063 36.4248C49.9839 36.9574 48.6665 37.234 47.3344 37.2377C45.5118 37.2311 43.7271 36.714 42.1802 35.7441Z" fill="#DE1C25"/>
<path d="M32.1713 39.8472C32.1396 40.1397 32.1212 40.4335 32.1162 40.7276C32.1162 43.3459 33.1753 45.8571 35.0604 47.7085C36.9455 49.56 39.5022 50.6001 42.1682 50.6001C43.4882 50.6001 44.7954 50.3447 46.0149 49.8486C47.2345 49.3525 48.3426 48.6253 49.276 47.7085C50.2094 46.7918 50.9498 45.7034 51.455 44.5056C51.9602 43.3079 52.2201 42.0241 52.2201 40.7276C52.218 40.4336 52.2026 40.1398 52.1738 39.8472H32.1713Z" fill="#0078D9"/>
<path d="M39.2743 45.5675V46.5309H35.1338C35.1786 46.1667 35.3131 45.8222 35.5373 45.4974C35.7615 45.1701 36.2043 44.737 36.8657 44.1982C37.3981 43.7626 37.7246 43.4673 37.8451 43.3123C38.0076 43.0982 38.0889 42.8866 38.0889 42.6774C38.0889 42.4461 38.0174 42.269 37.8745 42.1459C37.7344 42.0204 37.5396 41.9577 37.2902 41.9577C37.0436 41.9577 36.8474 42.0229 36.7017 42.1533C36.556 42.2837 36.4719 42.5003 36.4495 42.8029L35.2725 42.6996C35.3426 42.1287 35.5626 41.719 35.9325 41.4705C36.3024 41.2219 36.7648 41.0977 37.3196 41.0977C37.9278 41.0977 38.4056 41.2416 38.7531 41.5295C39.1006 41.8174 39.2743 42.1754 39.2743 42.6036C39.2743 42.8472 39.2239 43.0798 39.123 43.3012C39.0249 43.5202 38.868 43.7503 38.6522 43.9915C38.5093 44.1514 38.2514 44.3815 37.8787 44.6817C37.506 44.9819 37.2692 45.1812 37.1683 45.2796C37.0702 45.3781 36.9904 45.474 36.9287 45.5675H39.2743Z" fill="white"/>
<path d="M41.0904 43.6113C40.785 43.4981 40.5622 43.3431 40.4221 43.1462C40.2847 42.9469 40.2161 42.7291 40.2161 42.4929C40.2161 42.0893 40.3758 41.7559 40.6953 41.4926C41.0176 41.2293 41.4743 41.0977 42.0657 41.0977C42.6514 41.0977 43.1053 41.2293 43.4276 41.4926C43.7527 41.7559 43.9152 42.0893 43.9152 42.4929C43.9152 42.7439 43.841 42.9678 43.6924 43.1647C43.5439 43.3591 43.3351 43.5079 43.0661 43.6113C43.408 43.7318 43.6672 43.9078 43.8438 44.1391C44.0231 44.3704 44.1128 44.6374 44.1128 44.9401C44.1128 45.4396 43.9306 45.8456 43.5663 46.1581C43.2048 46.4706 42.7228 46.6269 42.1203 46.6269C41.5598 46.6269 41.0932 46.4977 40.7205 46.2393C40.2805 45.9342 40.0605 45.5159 40.0605 44.9843C40.0605 44.6915 40.1432 44.4233 40.3086 44.1797C40.4739 43.9336 40.7345 43.7442 41.0904 43.6113ZM41.3342 42.5667C41.3342 42.7734 41.4001 42.9346 41.5318 43.0502C41.6663 43.1659 41.8443 43.2237 42.0657 43.2237C42.2898 43.2237 42.4692 43.1659 42.6037 43.0502C42.7382 42.9321 42.8055 42.7697 42.8055 42.563C42.8055 42.3686 42.7382 42.2136 42.6037 42.0979C42.472 41.9798 42.2968 41.9208 42.0783 41.9208C41.8513 41.9208 41.6705 41.9798 41.536 42.0979C41.4015 42.216 41.3342 42.3723 41.3342 42.5667ZM41.2249 44.8847C41.2249 45.1701 41.3076 45.3928 41.4729 45.5528C41.6411 45.7127 41.8499 45.7927 42.0993 45.7927C42.3431 45.7927 42.5449 45.7164 42.7046 45.5638C42.8643 45.4088 42.9442 45.1861 42.9442 44.8958C42.9442 44.6423 42.8629 44.4393 42.7004 44.2867C42.5379 44.1317 42.3319 44.0542 42.0825 44.0542C41.7938 44.0542 41.578 44.1416 41.4351 44.3163C41.295 44.491 41.2249 44.6805 41.2249 44.8847Z" fill="white"/>
<path d="M46.8661 41.0977C47.463 41.0977 47.9296 41.2847 48.2659 41.6587C48.6667 42.1016 48.867 42.8361 48.867 43.8623C48.867 44.8859 48.6653 45.6217 48.2617 46.0695C47.9282 46.4386 47.463 46.6232 46.8661 46.6232C46.2664 46.6232 45.783 46.4214 45.4159 46.0178C45.0488 45.6118 44.8652 44.8896 44.8652 43.8512C44.8652 42.8325 45.067 42.0992 45.4705 41.6513C45.804 41.2822 46.2692 41.0977 46.8661 41.0977ZM46.8661 41.9577C46.7232 41.9577 46.5957 41.9983 46.4836 42.0795C46.3715 42.1582 46.2846 42.3009 46.223 42.5076C46.1417 42.7759 46.1011 43.2274 46.1011 43.8623C46.1011 44.4971 46.1375 44.9339 46.2104 45.1726C46.2832 45.4088 46.3743 45.5663 46.4836 45.6451C46.5957 45.7238 46.7232 45.7632 46.8661 45.7632C47.0091 45.7632 47.1366 45.7238 47.2487 45.6451C47.3608 45.5638 47.4476 45.4199 47.5093 45.2132C47.5906 44.9474 47.6312 44.4971 47.6312 43.8623C47.6312 43.2274 47.5948 42.7919 47.5219 42.5556C47.449 42.3169 47.3566 42.1582 47.2445 42.0795C47.1352 41.9983 47.0091 41.9577 46.8661 41.9577Z" fill="white"/>
<path d="M14.0968 42.6327C19.6079 42.6327 24.0755 38.2449 24.0755 32.8322C24.0755 27.4196 19.6079 23.0317 14.0968 23.0317C8.58577 23.0317 4.11816 27.4196 4.11816 32.8322C4.11816 38.2449 8.58577 42.6327 14.0968 42.6327Z" fill="#0179DA"/>
<path d="M14.0539 26.7521C14.0472 26.7525 14.0403 26.7546 14.0334 26.7554C14.0154 26.757 13.9979 26.7604 13.98 26.7639C13.9544 26.7689 13.9291 26.7739 13.9044 26.7816C13.8984 26.7832 13.8931 26.7832 13.8878 26.7857C13.879 26.7891 13.8714 26.7932 13.8629 26.7969C13.8373 26.8068 13.8126 26.8178 13.7885 26.8308C13.7728 26.8392 13.7581 26.8484 13.7434 26.8579C13.7255 26.8696 13.7084 26.8815 13.6918 26.8948C13.6743 26.9088 13.6581 26.9235 13.6423 26.9391C13.6294 26.952 13.617 26.9653 13.6052 26.9795C13.5897 26.9977 13.5759 27.0166 13.5627 27.0362C13.5535 27.05 13.5446 27.0637 13.5365 27.0783C13.5235 27.1013 13.5127 27.1252 13.5028 27.1496C13.4994 27.1585 13.4939 27.1662 13.4905 27.1754L12.581 29.7604C12.5784 29.7637 12.5776 29.767 12.5759 29.7707L11.8956 31.7047L11.4354 33.0123L9.67178 38.0263C9.56636 38.2543 9.60524 38.5304 9.79339 38.7224C9.89948 38.8306 10.0351 38.8909 10.1754 38.9084C10.1754 38.9085 10.1779 38.9089 10.1779 38.9089C10.2152 38.913 10.2524 38.9147 10.2899 38.913C10.3009 38.9126 10.3114 38.9114 10.3222 38.9105C10.3491 38.908 10.3757 38.9039 10.4023 38.8976C10.4196 38.8935 10.4363 38.8891 10.4531 38.8839C10.4735 38.8773 10.4933 38.8705 10.513 38.862C10.5352 38.8527 10.5564 38.8418 10.5774 38.8302C10.5893 38.8235 10.6013 38.8168 10.6129 38.8092C10.6414 38.7908 10.6677 38.7697 10.693 38.7469C10.6955 38.7444 10.6989 38.7427 10.7022 38.7402L10.7385 38.7063V38.7046L14.0972 35.5293L17.4559 38.7046C17.4592 38.708 17.4626 38.7105 17.4655 38.7141L17.493 38.7399C17.4955 38.7424 17.499 38.7441 17.5023 38.7465C17.5276 38.7693 17.5539 38.7905 17.5823 38.8088C17.594 38.8163 17.6058 38.823 17.6178 38.8299C17.6386 38.8416 17.66 38.8523 17.6822 38.8616C17.7019 38.8701 17.7218 38.8771 17.7421 38.8836C17.7589 38.8886 17.7756 38.8935 17.7928 38.8973C17.8191 38.9031 17.8453 38.9074 17.872 38.9102C17.8831 38.911 17.894 38.9127 17.9052 38.9127C17.9427 38.9143 17.98 38.9134 18.0172 38.9085C18.0172 38.9084 18.0198 38.9081 18.0198 38.9081C18.16 38.8906 18.2956 38.8303 18.4017 38.722C18.5899 38.53 18.6288 38.254 18.5233 38.0259L15.6188 29.7704C15.6188 29.7679 15.6163 29.7654 15.6154 29.7629L14.705 27.1753C14.7016 27.1651 14.6952 27.1564 14.691 27.1465C14.6818 27.1239 14.6717 27.1018 14.6599 27.0803C14.6512 27.0647 14.6418 27.0499 14.6319 27.0352C14.6189 27.016 14.6054 26.9975 14.5903 26.9797C14.5778 26.9649 14.5647 26.9511 14.551 26.9377C14.5364 26.9232 14.5212 26.9095 14.505 26.8964C14.4873 26.8821 14.4689 26.8692 14.4499 26.8569C14.4356 26.8477 14.4213 26.8389 14.4061 26.8307C14.3823 26.8178 14.3579 26.807 14.3326 26.7972C14.3239 26.7939 14.3163 26.7887 14.3072 26.7857C14.3013 26.784 14.2962 26.7832 14.2906 26.7815C14.266 26.774 14.2409 26.7685 14.2154 26.7639C14.1974 26.7605 14.1798 26.7572 14.162 26.7553C14.1409 26.7536 14.1196 26.7528 14.0981 26.7528C14.0838 26.7528 14.0691 26.7503 14.0549 26.7511L14.0539 26.7521Z" fill="white"/>
<path opacity="0.24" d="M55.5553 46.1143C55.5403 46.1676 55.5254 46.2211 55.5098 46.2741C55.5254 46.2211 55.5422 46.1688 55.557 46.1156L55.5553 46.1143Z" fill="black"/>
<path opacity="0.24" d="M47.2002 54.4948L47.2027 54.4965C47.3205 54.4621 47.4378 54.4259 47.554 54.3882C47.4374 54.4259 47.3192 54.4607 47.201 54.4952L47.2002 54.4948Z" fill="black"/>
</g>
<defs>
<clipPath id="clip0_5298_2040">
<rect width="56" height="55" fill="white"/>
</clipPath>
</defs>
</svg>
