<svg width="21" height="25" viewBox="0 0 21 25" fill="none" xmlns="http://www.w3.org/2000/svg">
<path d="M10.8117 5.76923C11.9766 5.76923 13.4367 5.00636 14.3062 3.98919C15.0937 3.06739 15.668 1.78004 15.668 0.492689C15.668 0.317864 15.6516 0.143039 15.6187 0C14.3227 0.0476796 12.7641 0.84234 11.8289 1.90718C11.0906 2.71774 10.418 3.98919 10.418 5.29243C10.418 5.48315 10.4508 5.67387 10.4672 5.73744C10.5492 5.75334 10.6805 5.76923 10.8117 5.76923ZM6.71016 25C8.30156 25 9.00703 23.9669 10.9922 23.9669C13.0102 23.9669 13.4531 24.9682 15.225 24.9682C16.9641 24.9682 18.1289 23.4107 19.2281 21.8849C20.4586 20.1367 20.9672 18.4202 21 18.3407C20.8852 18.309 17.5547 16.9898 17.5547 13.2867C17.5547 10.0763 20.1797 8.63001 20.3273 8.51875C18.5883 6.10299 15.9469 6.03941 15.225 6.03941C13.2727 6.03941 11.6812 7.18372 10.6805 7.18372C9.59766 7.18372 8.17031 6.10299 6.48047 6.10299C3.26484 6.10299 0 8.67768 0 13.541C0 16.5607 1.21406 19.7552 2.70703 21.8214C3.98672 23.5696 5.10234 25 6.71016 25Z" fill="white"/>
</svg>
