<svg width="39" height="55" viewBox="0 0 39 55" fill="none" xmlns="http://www.w3.org/2000/svg">
<path d="M10.6768 40.7475C12.3768 42.8693 14.1082 45.5372 15.0142 47.1487C16.1177 49.2436 16.5752 50.6581 17.396 53.1918C17.876 54.5794 18.3335 55.0002 19.2934 55.0002C20.343 55.0002 20.823 54.2929 21.1908 53.1918C21.9578 50.8148 22.5499 49.0064 23.4874 47.283C27.1027 40.4789 32.9966 35.6444 36.3159 29.0194C36.3159 29.0194 38.5004 24.9728 38.5004 19.3057C38.5004 14.0236 36.3473 10.353 36.3473 10.353L10.6902 40.7923L10.6768 40.7475Z" fill="#34A853"/>
<path d="M1.97277 28.3583C4.0382 33.0443 7.97641 37.1501 10.6646 40.765L24.9121 23.94C24.9121 23.94 22.9004 26.5642 19.2668 26.5642C15.2166 26.5642 11.9191 23.3509 11.9191 19.2897C11.9191 16.496 13.5903 14.5591 13.5903 14.5591C3.10629 16.1122 3.68874 18.6426 1.94141 28.3493L1.97277 28.3583Z" fill="#FBBC04"/>
<path d="M25.0391 0.970703C29.7862 2.49463 33.8167 5.70784 36.235 10.4003L24.86 23.9414C24.86 23.9414 26.5304 21.9929 26.5304 19.2042C26.5304 15.0525 23.0193 11.9198 19.2306 11.9198C15.6345 11.9198 13.5879 14.5162 13.5879 14.5162C14.4612 12.532 23.4851 1.64552 25.0525 0.975172L25.0391 0.970703Z" fill="#4285F4"/>
<path d="M4.53027 6.90486C7.34902 3.5111 12.2908 0 19.1146 0C22.4106 0 24.9127 0.884544 24.9127 0.884544L13.5396 14.5589C12.7724 14.1378 5.28848 8.2407 4.53027 6.8868V6.90486Z" fill="#1A73E8"/>
<path d="M1.87626 28.4705C1.87626 28.4705 0 24.7156 0 19.3101C0 14.1857 1.98875 9.69624 4.49943 6.79395L13.5883 14.5032L1.88976 28.4705H1.87626Z" fill="#EA4335"/>
</svg>
