<svg width="23" height="24" viewBox="0 0 23 24" fill="none" xmlns="http://www.w3.org/2000/svg">
<path fill-rule="evenodd" clip-rule="evenodd" d="M22.785 12.2728C22.785 11.4219 22.711 10.6037 22.5736 9.81824H11.625V14.4601H17.8814C17.6119 15.9601 16.7928 17.231 15.5616 18.0819V21.0928H19.3186C21.5168 19.0037 22.785 15.9273 22.785 12.2728Z" fill="#4285F4"/>
<path fill-rule="evenodd" clip-rule="evenodd" d="M11.6249 24C14.7636 24 17.3951 22.9255 19.3185 21.0928L15.5615 18.0818C14.5205 18.8018 13.1889 19.2273 11.6249 19.2273C8.59707 19.2273 6.03428 17.1164 5.12013 14.28H1.23633V17.3891C3.14917 21.3109 7.08053 24 11.6249 24Z" fill="#34A853"/>
<path fill-rule="evenodd" clip-rule="evenodd" d="M5.12028 14.2801C4.88778 13.5601 4.75568 12.791 4.75568 12.0001C4.75568 11.2091 4.88778 10.4401 5.12028 9.72005V6.61096H1.23648C0.449148 8.23096 0 10.0637 0 12.0001C0 13.9364 0.449148 15.7691 1.23648 17.3891L5.12028 14.2801Z" fill="#FBBC05"/>
<path fill-rule="evenodd" clip-rule="evenodd" d="M11.6249 4.77273C13.3316 4.77273 14.864 5.37818 16.0688 6.56727L19.403 3.12545C17.3898 1.18909 14.7583 0 11.6249 0C7.08053 0 3.14917 2.68909 1.23633 6.61091L5.12013 9.72C6.03428 6.88364 8.59707 4.77273 11.6249 4.77273Z" fill="#EA4335"/>
</svg>
